{
    "asset" : {
        "generator" : "Khronos glTF Blender I/O v1.7.33",
        "version" : "2.0"
    },
    "extensionsUsed" : [
        "KHR_materials_clearcoat"
    ],
    "scene" : 0,
    "scenes" : [
        {
            "name" : "Scene",
            "nodes" : [
                0,
                1
            ]
        }
    ],
    "nodes" : [
        {
            "mesh" : 0,
            "name" : "Sphere",
            "translation" : [
                0,
                3.824265956878662,
                0
            ]
        },
        {
            "mesh" : 1,
            "name" : "Cylinder",
            "scale" : [
                0.017653947696089745,
                0.8627546429634094,
                0.017653947696089745
            ],
            "translation" : [
                0.11522543430328369,
                1.7577217817306519,
                0
            ]
        }
    ],
    "materials" : [
        {
            "doubleSided" : true,
            "name" : "Material.002",
            "pbrMetallicRoughness" : {
                "baseColorFactor" : [
                    0.07735639065504074,
                    0.17697323858737946,
                    0.8000000715255737,
                    1
                ],
                "metallicFactor" : 0.5669291019439697,
                "roughnessFactor" : 0.5748031735420227
            }
        },
        {
            "doubleSided" : true,
            "extensions" : {
                "KHR_materials_clearcoat" : {
                    "clearcoatFactor" : 1,
                    "clearcoatRoughnessFactor" : 1
                }
            },
            "name" : "Material.001",
            "pbrMetallicRoughness" : {
                "baseColorFactor" : [
                    0.8000000715255737,
                    0.7840383648872375,
                    0.5633240938186646,
                    1
                ],
                "metallicFactor" : 0,
                "roughnessFactor" : 0
            }
        }
    ],
    "meshes" : [
        {
            "name" : "Sphere",
            "primitives" : [
                {
                    "attributes" : {
                        "POSITION" : 0,
                        "NORMAL" : 1,
                        "TEXCOORD_0" : 2
                    },
                    "indices" : 3,
                    "material" : 0
                }
            ]
        },
        {
            "name" : "Cylinder",
            "primitives" : [
                {
                    "attributes" : {
                        "POSITION" : 4,
                        "NORMAL" : 5,
                        "TEXCOORD_0" : 6
                    },
                    "indices" : 7,
                    "material" : 1
                }
            ]
        }
    ],
    "accessors" : [
        {
            "bufferView" : 0,
            "componentType" : 5126,
            "count" : 1394,
            "max" : [
                0.9999997019767761,
                1,
                0.9999994039535522
            ],
            "min" : [
                -0.9999990463256836,
                -1.511143445968628,
                -0.9999987483024597
            ],
            "type" : "VEC3"
        },
        {
            "bufferView" : 1,
            "componentType" : 5126,
            "count" : 1394,
            "type" : "VEC3"
        },
        {
            "bufferView" : 2,
            "componentType" : 5126,
            "count" : 1394,
            "type" : "VEC2"
        },
        {
            "bufferView" : 3,
            "componentType" : 5123,
            "count" : 5952,
            "type" : "SCALAR"
        },
        {
            "bufferView" : 4,
            "componentType" : 5126,
            "count" : 2310,
            "max" : [
                3.145242691040039,
                0.7486364841461182,
                5.216852188110352
            ],
            "min" : [
                -11.734210014343262,
                -0.7078889608383179,
                -5.216852188110352
            ],
            "type" : "VEC3"
        },
        {
            "bufferView" : 5,
            "componentType" : 5126,
            "count" : 2310,
            "type" : "VEC3"
        },
        {
            "bufferView" : 6,
            "componentType" : 5126,
            "count" : 2310,
            "type" : "VEC2"
        },
        {
            "bufferView" : 7,
            "componentType" : 5123,
            "count" : 12444,
            "type" : "SCALAR"
        }
    ],
    "bufferViews" : [
        {
            "buffer" : 0,
            "byteLength" : 16728,
            "byteOffset" : 0
        },
        {
            "buffer" : 0,
            "byteLength" : 16728,
            "byteOffset" : 16728
        },
        {
            "buffer" : 0,
            "byteLength" : 11152,
            "byteOffset" : 33456
        },
        {
            "buffer" : 0,
            "byteLength" : 11904,
            "byteOffset" : 44608
        },
        {
            "buffer" : 0,
            "byteLength" : 27720,
            "byteOffset" : 56512
        },
        {
            "buffer" : 0,
            "byteLength" : 27720,
            "byteOffset" : 84232
        },
        {
            "buffer" : 0,
            "byteLength" : 18480,
            "byteOffset" : 111952
        },
        {
            "buffer" : 0,
            "byteLength" : 24888,
            "byteOffset" : 130432
        }
    ],
    "buffers" : [
        {
            "byteLength" : 155320,
            "uri" : "data:application/octet-stream;base64,"
        }
    ]
}
